<?xml version="1.0" standalone="no"?><!DOCTYPE svg PUBLIC "-//W3C//DTD SVG 1.1//EN" "http://www.w3.org/Graphics/SVG/1.1/DTD/svg11.dtd"><svg class="icon" width="200px" height="200.00px" viewBox="0 0 1024 1024" version="1.1" xmlns="http://www.w3.org/2000/svg"><path fill="#000000" d="M720 192h-544A80.096 80.096 0 0 0 96 272v608C96 924.128 131.904 960 176 960h544c44.128 0 80-35.872 80-80v-608C800 227.904 764.128 192 720 192z m16 688c0 8.8-7.2 16-16 16h-544a16 16 0 0 1-16-16v-608a16 16 0 0 1 16-16h544a16 16 0 0 1 16 16v608z"  /><path fill="#000000" d="M848 64h-544a32 32 0 0 0 0 64h544a16 16 0 0 1 16 16v608a32 32 0 1 0 64 0v-608C928 99.904 892.128 64 848 64z"  /><path fill="#000000" d="M608 360H288a32 32 0 0 0 0 64h320a32 32 0 1 0 0-64zM608 520H288a32 32 0 1 0 0 64h320a32 32 0 1 0 0-64zM480 678.656H288a32 32 0 1 0 0 64h192a32 32 0 1 0 0-64z"  /></svg>